<svg xmlns="http://www.w3.org/2000/svg" width="320" height="320" viewBox="0 0 320 320"><circle cx="160" cy="160" r="145" fill="#F4F9EE" fill-opacity=".7" stroke="#91D5EF" stroke-width="4"/><g transform="rotate(0 160 160)"><path d="M160 25Q212 79 177 129L160 144L143 129Q108 79 160 25Z" fill="#B8DE78" stroke="#27634D" stroke-width="3"/><path d="M160 55V115 M148 78L160 65L172 78" fill="none" stroke="#183D35" stroke-width="4" stroke-linecap="round"/></g><g transform="rotate(90 160 160)"><path d="M160 25Q212 79 177 129L160 144L143 129Q108 79 160 25Z" fill="#B8DE78" stroke="#27634D" stroke-width="3"/><path d="M160 55V115 M148 78L160 65L172 78" fill="none" stroke="#183D35" stroke-width="4" stroke-linecap="round"/></g><g transform="rotate(180 160 160)"><path d="M160 25Q212 79 177 129L160 144L143 129Q108 79 160 25Z" fill="#B8DE78" stroke="#27634D" stroke-width="3"/><path d="M160 55V115 M148 78L160 65L172 78" fill="none" stroke="#183D35" stroke-width="4" stroke-linecap="round"/></g><g transform="rotate(270 160 160)"><path d="M160 25Q212 79 177 129L160 144L143 129Q108 79 160 25Z" fill="#79B658" stroke="#27634D" stroke-width="3"/><path d="M160 55V115 M148 78L160 65L172 78" fill="none" stroke="#183D35" stroke-width="4" stroke-linecap="round"/></g><circle cx="160" cy="160" r="19" fill="#91D5EF" stroke="#27634D" stroke-width="3"/></svg>